<?xml version="1.0" standalone="no"?>
<!DOCTYPE svg PUBLIC "-//W3C//DTD SVG 20010904//EN"
 "http://www.w3.org/TR/2001/REC-SVG-20010904/DTD/svg10.dtd">
<svg version="1.0" xmlns="http://www.w3.org/2000/svg"
 width="256.000000pt" height="256.000000pt" viewBox="0 0 256.000000 256.000000"
 preserveAspectRatio="xMidYMid meet">

<g transform="translate(0.000000,256.000000) scale(0.100000,-0.100000)"
fill="#000000" stroke="none">
<path d="M50 2433 c-52 -20 -69 -94 -30 -133 18 -18 33 -20 174 -20 l154 0 6
-24 c3 -14 10 -64 15 -113 17 -157 219 -1220 240 -1260 23 -45 72 -93 121
-119 33 -18 79 -19 800 -24 421 -3 766 -7 767 -8 19 -20 53 -95 53 -116 0 -64
-55 -116 -122 -116 -26 0 -42 9 -72 41 -51 54 -106 79 -181 79 -75 0 -151 -33
-191 -84 l-29 -36 -320 0 -320 0 -29 36 c-88 111 -297 110 -382 -2 -25 -32
-29 -34 -90 -34 -34 0 -74 -4 -89 -10 -35 -13 -56 -64 -43 -102 14 -38 35 -48
107 -48 48 0 61 -3 61 -15 0 -31 50 -114 87 -144 37 -31 115 -61 158 -61 12 0
46 7 76 16 67 20 139 89 161 155 l15 44 287 0 288 0 19 -52 c26 -67 90 -126
160 -147 66 -20 82 -20 148 0 68 20 133 83 158 153 17 48 20 51 53 51 47 0
127 39 168 81 50 51 74 105 80 180 4 57 1 75 -21 123 -14 30 -45 77 -70 103
l-44 48 93 500 c98 524 108 612 78 683 -18 43 -64 94 -114 125 l-35 22 -935 5
-935 5 -18 90 c-26 134 -18 130 -250 132 -105 1 -199 -1 -207 -4z m2316 -398
c53 -36 53 -33 -50 -593 -53 -285 -96 -522 -96 -526 0 -3 -315 -6 -699 -6
l-699 0 -31 25 c-16 14 -32 34 -35 43 -8 26 -196 1040 -196 1057 0 22 1774 23
1806 0z m-1409 -1597 c29 -33 35 -57 22 -95 -30 -93 -169 -70 -169 29 0 53 35
88 88 88 27 0 44 -7 59 -22z m1078 -3 c71 -70 -15 -187 -103 -141 -55 28 -62
96 -15 148 25 27 88 24 118 -7z"/>
<path d="M915 1835 c-14 -13 -25 -32 -25 -41 0 -36 122 -637 133 -655 29 -46
101 -43 133 6 16 24 13 39 -47 347 -53 272 -67 327 -86 346 -30 30 -77 29
-108 -3z"/>
<path d="M1432 1853 c-7 -3 -19 -18 -27 -33 -23 -45 -22 -646 1 -678 22 -32
58 -44 91 -31 52 20 52 19 53 372 l0 328 -25 24 c-23 24 -61 31 -93 18z"/>
<path d="M1922 1840 c-26 -24 -19 3 -87 -346 -68 -349 -68 -351 -14 -380 33
-17 70 -11 94 15 16 19 135 595 135 658 0 61 -82 95 -128 53z"/>
</g>
</svg>
